
<svg width="48px" height="46px" viewBox="182 0 48 46" version="1.1" xmlns="http://www.w3.org/2000/svg" xmlns:xlink="http://www.w3.org/1999/xlink">
    <!-- Generator: Sketch 42 (36781) - http://www.bohemiancoding.com/sketch -->
    <desc>Created with Sketch.</desc>
    <defs></defs>
    <path d="M205.911,15.037 C208.812,15.037 211.162,11.89 211.162,8.01 C211.162,4.126 208.812,0.977 205.911,0.977 C203.01,0.977 200.661,4.126 200.661,8.01 C200.661,11.89 203.01,15.037 205.911,15.037 Z M205.912,40.084 C206,40 231.078,15.551 205.911,15.551 C180.76,15.551 205.803,39.979 205.908,40.084 C194.016,35.568 182.126,31.049 182.126,40.084 C182.126,49.121 194.016,44.602 205.911,40.086 L205.912,40.086 C217.805,44.602 229.695,49.121 229.695,40.084 C229.695,31.049 217.805,35.568 205.912,40.084 L205.912,40.084 Z" id="Fill-1" stroke="none" fill="#EA872E" fill-rule="evenodd"></path>
</svg>
